<?xml version="1.0" standalone="no"?>
<!DOCTYPE svg PUBLIC "-//W3C//DTD SVG 20010904//EN"
 "http://www.w3.org/TR/2001/REC-SVG-20010904/DTD/svg10.dtd">
<svg version="1.0" xmlns="http://www.w3.org/2000/svg"
 width="100.000000pt" height="100.000000pt" viewBox="0 0 100.000000 100.000000"
 preserveAspectRatio="xMidYMid meet">
<metadata>
Created by potrace 1.11, written by Peter Selinger 2001-2013
</metadata>
<g transform="translate(0.000000,100.000000) scale(0.100000,-0.100000)"
fill="#000000" stroke="none">
<path d="M230 490 l0 -250 60 0 60 0 0 250 0 250 -60 0 -60 0 0 -250z"/>
<path d="M440 695 l0 -45 105 0 c58 0 105 -3 105 -7 0 -5 -48 -75 -105 -158
-98 -139 -105 -153 -105 -197 l0 -48 175 0 175 0 0 50 0 50 -105 0 c-58 0
-105 2 -105 5 0 2 47 71 105 154 96 137 105 153 105 195 l0 46 -175 0 -175 0
0 -45z"/>
</g>
</svg>
