<svg id="Capa_1" enable-background="new 0 0 512.001 512.001" height="512" viewBox="0 0 512.001 512.001" width="512" xmlns="http://www.w3.org/2000/svg"><g><path d="m512.001 173.415c0-28.208-12.911-53.333-33.095-69.976l-16.794-11.034c-3.351-33.349-31.498-59.386-65.731-59.386-14.622 0-28.127 4.757-39.067 12.802l-12.177 11.594c-9.324-5.031-20.004-7.879-31.342-7.879-15.624 0-29.982 5.424-41.293 14.49l-24.776 51.578-49.551 297.308c0 41.049 74.327 74.327 74.327 74.327 41.05 0 74.327-33.278 74.327-74.327 0-2.93-.214-5.806-.543-8.647 41.648-3.511 75.209-35.089 81.837-75.771l17.609-6.96c19.853-11.381 33.235-32.747 33.235-57.275 0-6.508-.979-12.781-2.732-18.72l13.074-12.186c14.107-15.983 22.692-36.938 22.692-59.938z" fill="#f5ebcd"/><path d="m297.279 322.069c-9.332 0-17.853-3.229-24.776-8.47v-249.572c-15.091 12.109-24.776 30.725-24.776 51.578l-49.551 297.308c0 41.049 33.277 74.327 74.327 74.327v-154.312c7.522 3.589 15.902 5.658 24.776 5.658 4.565 0 8.259-3.698 8.259-8.259s-3.695-8.258-8.259-8.258z" fill="#f4dbb3"/><path d="m246.814 68.064c-29.195-29.835-71.218-47.056-117.187-42.608-18.454 1.786-35.77 7.139-51.365 15.314-49.046 25.705-65.928 103.564-65.928 137.532 0 145.413 177.841 259.391 232.917 295.198l10.733-10.14-.02-372.405c0-8.517-3.192-16.802-9.15-22.891z" fill="#e5646e"/><path d="m390.703 194.578c-22.767 0-41.293-18.525-41.293-41.293 0-4.561-3.694-8.259-8.259-8.259s-8.259 3.698-8.259 8.259c0 15.599 6.238 29.749 16.316 40.159-7.961 13.405-10.174 29.32-6.017 44.596 1 3.674 4.331 6.093 7.96 6.093.718 0 1.452-.097 2.178-.294 4.403-1.198 7-5.734 5.799-10.138-2.784-10.229-1.507-20.839 3.34-30.021 8.359 4.702 17.98 7.415 28.234 7.415 4.565 0 8.259-3.698 8.259-8.259.001-4.561-3.693-8.258-8.258-8.258z" fill="#f4dbb3"/><path d="m24.943 161.974c-2.482-47.836 18.487-92.516 53.319-121.205-49.146 25.67-81.09 79.234-78.064 137.533 7.536 145.217 184.506 271.227 239.581 307.034 6.998 4.55 16.206-.489 16.206-8.837l-.001-13.139c-62.734-42.004-223.856-162.933-231.041-301.386z" fill="#db4655"/><g fill="#f4dbb3"><path d="m462.112 92.405c.252 2.187.467 4.43.467 6.683 0 6.859-1.186 13.569-3.532 19.941-1.573 4.278.621 9.025 4.895 10.601.944.347 1.903.512 2.855.512 3.363 0 6.525-2.073 7.75-5.412 2.517-6.844 3.937-13.993 4.359-21.291-5.145-4.242-10.793-7.988-16.794-11.034z"/><path d="m358.895 69.802c2.863 3.557 8.049 4.129 11.614 1.27 3.557-2.855 4.129-8.053 1.274-11.61-4.212-5.247-9.175-9.79-14.468-13.642-4.545 3.338-8.62 7.226-12.177 11.594 5.141 3.329 9.805 7.465 13.757 12.388z"/><path d="m485.12 225.139c-2.315-3.92-7.363-5.222-11.315-2.899-3.92 2.323-5.218 7.388-2.895 11.311 2.365 3.996 3.992 7.566 5.325 11.989 4.745-3.629 9.127-7.714 13.074-12.186-1.213-2.785-2.634-5.589-4.189-8.215z"/><path d="m434.157 286.833c-4.46.948-7.315 5.327-6.371 9.791 1.186 5.609 1.79 11.392 1.79 17.186 0 5.011-.594 9.916-1.453 14.684 6.234-1.48 12.197-3.857 17.609-6.96.196-2.541.361-5.133.361-7.724 0-6.944-.726-13.876-2.145-20.606-.944-4.46-5.339-7.306-9.791-6.371z"/></g></g></svg>