<svg id="Digital_content" height="512" viewBox="0 0 64 64" width="512" xmlns="http://www.w3.org/2000/svg" data-name="Digital content"><path d="m59 61h-54a2 2 0 0 1 -2-2v-6h58v6a2 2 0 0 1 -2 2z" fill="#57565c"/><path d="m25 53h14v4h-14z" fill="#e9e9ea"/><path d="m6 19h52a2 2 0 0 1 2 2v32a0 0 0 0 1 0 0h-56a0 0 0 0 1 0 0v-32a2 2 0 0 1 2-2z" fill="#e9e9ea"/><path d="m8 24h48v29h-48z" fill="#2488ff"/><path d="m11 4h42v41h-42z" fill="#91d1f5"/><path d="m15 16h20v14h-20z" fill="#46f8ff"/><circle cx="21" cy="21" fill="#ffc740" r="2"/><path d="m20 30 7-8 7 8z" fill="#70a61b"/><path d="m11 4h42v8h-42z" fill="none"/><path d="m11 4h42v8h-42z" fill="#006ca9"/><path d="m15 34h34v6h-34z" fill="#fff"/><path d="m45.696 41.794-9.696-4.794-.696 10.794 2.598-1.5 2 3.464 5.196-3-2-3.464z" fill="#ffc740"/><path d="m59 61h-54a2 2 0 0 1 -2-2v-6h58v6a2 2 0 0 1 -2 2z" fill="#57565c"/><path d="m25 53h14v4h-14z" fill="#e9e9ea"/><path d="m6 19h52a2 2 0 0 1 2 2v32a0 0 0 0 1 0 0h-56a0 0 0 0 1 0 0v-32a2 2 0 0 1 2-2z" fill="#e9e9ea"/><path d="m8 24h48v29h-48z" fill="#2488ff"/><path d="m11 4h42v41h-42z" fill="#91d1f5"/><path d="m15 16h20v14h-20z" fill="#46f8ff"/><circle cx="21" cy="21" fill="#ffc740" r="2"/><path d="m20 30 7-8 7 8z" fill="#70a61b"/><path d="m11 4h42v8h-42z" fill="none"/><path d="m11 4h42v8h-42z" fill="#006ca9"/><path d="m15 34h34v6h-34z" fill="#fff"/><path d="m45.696 41.794-9.696-4.794-.696 10.794 2.598-1.5 2 3.464 5.196-3-2-3.464z" fill="#ffc740"/><path d="m14 7h2v2h-2z" fill="#ec455a"/><path d="m18 7h2v2h-2z" fill="#ffc740"/><path d="m22 7h2v2h-2z" fill="#8cc63e"/><g fill="#1a6fb0"><path d="m38 16h6v2h-6z"/><path d="m38 20h4v2h-4z"/><path d="m44 20h6v2h-6z"/><path d="m38 24h12v2h-12z"/><path d="m38 28h12v2h-12z"/><path d="m46 16h4v2h-4z"/></g></svg>