<svg id="Capa_1" enable-background="new 0 0 512 512" height="512" viewBox="0 0 512 512" width="512" xmlns="http://www.w3.org/2000/svg"><g><g><g><path d="m201.58 369.426h108.841v31.687h-108.841z" fill="#e4f6ff" transform="matrix(0 -1 1 0 -129.269 641.269)"/><g><path d="m332.496 232.925 22.177-148.094c6.689-44.668-27.908-84.831-73.073-84.831h-108.304c-45.166 0-79.762 40.163-73.073 84.831l22.177 148.094c5.417 36.178 36.492 62.945 73.073 62.945h63.95c36.581.001 67.655-26.767 73.073-62.945z" fill="#e28086"/><path d="m338.704 0h-65.371c45.166 0 79.762 40.163 73.073 84.831l-22.177 148.094c-5.418 36.178-36.492 62.945-73.073 62.945h65.371c36.581 0 67.656-26.768 73.073-62.945l22.177-148.094c6.69-44.668-27.907-84.831-73.073-84.831z" fill="#dd636e"/><path d="m315.437 294.665h-178.735c-19.261 0-34.875 15.614-34.875 34.875v18.169h248.484v-18.169c.001-19.261-15.613-34.875-34.874-34.875z" fill="#e28086"/><path d="m375.298 294.665h-65.371c19.261 0 34.875 15.614 34.875 34.875v18.169h65.371v-18.169c-.001-19.261-15.615-34.875-34.875-34.875z" fill="#dd636e"/><g><path d="m427.712 355.459h-343.424c-15.018 0-27.236-12.218-27.236-27.236v-33.558c0-4.28 3.469-7.75 7.75-7.75s7.75 3.47 7.75 7.75v33.558c0 6.472 5.265 11.737 11.737 11.737h343.423c6.471 0 11.737-5.265 11.737-11.737v-33.558c0-4.28 3.469-7.75 7.75-7.75s7.75 3.47 7.75 7.75v33.558c-.001 15.018-12.219 27.236-27.237 27.236z" fill="#4a80aa"/></g><g fill="#e4f6ff"><path d="m441.121 311.578h15.34c15.675 0 28.382-12.707 28.382-28.382 0-5.711-4.63-10.341-10.341-10.341h-33.382c-5.711 0-10.341 4.63-10.341 10.341v18.042c.001 5.71 4.631 10.34 10.342 10.34z"/><path d="m70.879 311.578h-15.34c-15.675 0-28.382-12.707-28.382-28.382 0-5.711 4.63-10.341 10.341-10.341h33.382c5.711 0 10.341 4.63 10.341 10.341v18.042c-.001 5.71-4.631 10.34-10.342 10.34z"/></g></g><path d="m280.452 420.057h-48.904c-10.274 0-18.602 8.328-18.602 18.602v13.085h86.108v-13.085c0-10.274-8.328-18.602-18.602-18.602z" fill="#4a80aa"/><g><g><g><g><g><g><g><g><g><g><g><g><g><g><g><path d="m291.017 172.518c-4.281 0-7.75-3.47-7.75-7.75v-24.176c0-4.719-3.838-8.559-8.555-8.56h-37.424c-4.717 0-8.556 3.84-8.556 8.56v24.176c0 4.28-3.469 7.75-7.75 7.75s-7.75-3.47-7.75-7.75v-24.176c0-13.266 10.791-24.059 24.055-24.059h37.424c13.264.001 24.054 10.794 24.054 24.059v24.176c.001 4.28-3.468 7.75-7.748 7.75z" fill="#d8e2f1"/></g></g><g><path d="m295.701 275.086v-57.4h-104.989c-19.594 0-35.479-15.884-35.479-35.479v92.879c0 10.813 8.766 19.579 19.579 19.579h101.309c10.814 0 19.58-8.766 19.58-19.579z" fill="#ead3c4"/><path d="m337.187 158.898h-65.371c10.813 0 19.579 8.766 19.579 19.579v96.609c0 10.813-8.766 19.579-19.579 19.579h65.371c10.813 0 19.579-8.766 19.579-19.579v-96.609c.001-10.813-8.765-19.579-19.579-19.579z" fill="#ddb7a0"/><path d="m295.701 178.477c0-10.813-8.766-19.579-19.579-19.579h-101.31c-10.813 0-19.578 8.765-19.579 19.578v8.381c0 19.594 15.884 35.479 35.479 35.479h104.989z" fill="#ddb7a0"/><path d="m291.396 178.477v43.858h29.893c19.594 0 35.479-15.884 35.479-35.479v-8.381c-.001-10.813-8.766-19.578-19.579-19.578h-65.371c10.812.001 19.578 8.767 19.578 19.58z" fill="#d6a889"/></g></g></g></g></g></g></g></g></g></g></g><g><g><path d="m203.338 237.68c-4.281 0-7.75-3.47-7.75-7.75v-18.427c0-4.28 3.469-7.75 7.75-7.75s7.75 3.47 7.75 7.75v18.427c-.001 4.28-3.47 7.75-7.75 7.75z" fill="#e4f6ff"/></g><g><path d="m308.662 237.68c-4.281 0-7.75-3.47-7.75-7.75v-18.427c0-4.28 3.469-7.75 7.75-7.75s7.75 3.47 7.75 7.75v18.427c0 4.28-3.469 7.75-7.75 7.75z" fill="#e4f6ff"/></g></g></g></g></g></g></g><path d="m168.753 495.091v-7.794c0-15.331 12.473-27.804 27.804-27.804h118.885c15.331 0 27.803 12.473 27.803 27.804v7.794h15.499v-7.794c0-23.877-19.426-43.303-43.303-43.303h-118.883c-23.878 0-43.304 19.426-43.304 43.303v7.794z" fill="#d8e2f1"/><g fill="#365e7d"><path d="m162.652 478.183h-15.716c-9.338 0-16.909 7.57-16.909 16.909 0 9.338 7.57 16.909 16.909 16.909h15.716c9.338 0 16.909-7.57 16.909-16.909 0-9.339-7.571-16.909-16.909-16.909z"/><path d="m365.063 478.183h-15.716c-9.338 0-16.909 7.57-16.909 16.909 0 9.338 7.57 16.909 16.909 16.909h15.716c9.338 0 16.909-7.57 16.909-16.909 0-9.339-7.57-16.909-16.909-16.909z"/></g></g></svg>